<svg width="23" height="24" viewBox="0 0 23 24" fill="none" xmlns="http://www.w3.org/2000/svg">
<path d="M11.2563 0.636353C11.2502 0.636353 11.238 0.636353 11.2197 0.636353C5.05734 0.636353 0.0458374 5.64785 0.0458374 11.8102C0.0458374 14.3251 0.904431 16.7669 2.47547 18.7338L0.849627 22.5152C0.715662 22.8258 0.861806 23.1851 1.16627 23.3129C1.27588 23.3617 1.39767 23.3738 1.51336 23.3556L7.4748 22.3082C8.66831 22.7405 9.92271 22.9598 11.1893 22.9537C17.3517 22.9537 22.3632 17.9422 22.3632 11.7798C22.3754 5.63567 17.4004 0.642442 11.2563 0.636353ZM7.43218 9.56328H10.7204C11.0553 9.56328 11.3293 9.8373 11.3293 10.1722C11.3293 10.5071 11.0553 10.7811 10.7204 10.7811H7.43218C7.09726 10.7811 6.82324 10.5071 6.82324 10.1722C6.82324 9.8373 7.09726 9.56328 7.43218 9.56328ZM14.9829 13.8258H7.43218C7.09726 13.8258 6.82324 13.5518 6.82324 13.2169C6.82324 12.882 7.09726 12.6079 7.43218 12.6079H14.9829C15.3178 12.6079 15.5919 12.882 15.5919 13.2169C15.5919 13.5518 15.3178 13.8258 14.9829 13.8258Z" fill="white"/>
</svg>
