<svg width="24" height="24" viewBox="0 0 24 24" fill="none" xmlns="http://www.w3.org/2000/svg">
<g clip-path="url(#clip0)">
<path d="M14.9998 13.0003C14.4469 13.0003 13.9999 13.4484 13.9999 14.0002V18.0003C13.9999 18.5513 13.5519 19.0002 12.9998 19.0002H9.99984V4.00039C9.99984 3.14639 9.45584 2.3834 8.63792 2.09941L8.34184 2.00035H12.9998C13.5519 2.00035 13.9999 2.44932 13.9999 3.00046V6.00043C13.9999 6.5523 14.4469 7.00036 14.9998 7.00036C15.5528 7.00036 15.9998 6.5523 15.9998 6.00043V3.00046C15.9998 1.34648 14.6538 0.000488281 12.9998 0.000488281H2.24998C2.2119 0.000488281 2.18004 0.0175169 2.14305 0.0224607C2.09489 0.0184325 2.04893 0.000488281 2.00005 0.000488281C0.89703 0.000488281 5.72205e-06 0.89733 5.72205e-06 2.00035V20.0002C5.72205e-06 20.8542 0.544006 21.6172 1.36193 21.9012L7.37999 23.9072C7.58397 23.9702 7.78685 24.0003 7.99998 24.0003C9.103 24.0003 9.99984 23.1032 9.99984 22.0002V21.0003H12.9998C14.6538 21.0003 15.9998 19.6543 15.9998 18.0003V14.0002C15.9998 13.4484 15.5528 13.0003 14.9998 13.0003Z" fill="white"/>
<path d="M23.7068 9.29317L19.7068 5.29327C19.4209 5.00726 18.9908 4.9212 18.6169 5.07611C18.2439 5.2312 17.9999 5.59612 17.9999 6.00023V9.0002H14C13.4479 9.0002 12.9999 9.44807 12.9999 10.0001C12.9999 10.5522 13.4479 11.0001 14 11.0001H17.9999V14C17.9999 14.4041 18.2439 14.7691 18.6169 14.9242C18.9908 15.0791 19.4209 14.993 19.7068 14.7072L23.7068 10.7071C24.0978 10.3162 24.0978 9.68409 23.7068 9.29317Z" fill="white"/>
</g>
<defs>
<clipPath id="clip0">
<rect width="24" height="24" fill="white"/>
</clipPath>
</defs>
</svg>
