<svg width="34" height="34" viewBox="0 0 34 34" fill="none" xmlns="http://www.w3.org/2000/svg">
<g clip-path="url(#clip0)" filter="url(#filter0_dd)">
<path d="M17.533 2.58333H16.3871C16.0434 1.38542 14.9392 0.5 13.6267 0.5C12.3142 0.5 11.21 1.38542 10.8663 2.58333H9.72046C9.29338 2.58333 8.93921 2.9375 8.93921 3.36458V4.92708C8.93921 5.92708 9.76213 6.75 10.7621 6.75H16.4913C17.4913 6.75 18.3142 5.92708 18.3142 4.92708V3.36458C18.3142 2.9375 17.96 2.58333 17.533 2.58333Z" fill="white"/>
<path d="M19.6165 3.625H19.356V4.92708C19.356 6.51042 18.0748 7.79167 16.4915 7.79167H10.7623C9.17896 7.79167 7.89771 6.51042 7.89771 4.92708V3.625H7.63729C6.05396 3.625 4.77271 4.90625 4.77271 6.48958V19.5104C4.77271 21.0938 6.05396 22.375 7.63729 22.375H14.5019C13.981 21.2604 13.6685 20.0312 13.6373 18.7292H8.67896C8.25187 18.7292 7.89771 18.375 7.89771 17.9479C7.89771 17.5208 8.25187 17.1667 8.67896 17.1667H13.7206C13.8144 16.5312 13.9706 15.9271 14.179 15.3438H8.67896C8.25187 15.3438 7.89771 14.9896 7.89771 14.5625C7.89771 14.1354 8.25187 13.7812 8.67896 13.7812H14.929C15.3352 13.1146 15.8144 12.5 16.3769 11.9583H8.67896C8.25187 11.9583 7.89771 11.6042 7.89771 11.1771C7.89771 10.75 8.25187 10.3958 8.67896 10.3958H18.5123C19.7102 9.77083 21.054 9.39583 22.481 9.36458V6.48958C22.481 4.90625 21.1998 3.625 19.6165 3.625Z" fill="white"/>
<path d="M22.7415 11.4375C18.8644 11.4375 15.7102 14.5917 15.7102 18.4687C15.7102 22.3458 18.8644 25.5 22.7415 25.5C26.6185 25.5 29.7727 22.3458 29.7727 18.4687C29.7727 14.5917 26.6185 11.4375 22.7415 11.4375ZM23.7831 21.3333C23.7831 21.9083 23.3175 22.375 22.7415 22.375C22.1654 22.375 21.6998 21.9083 21.6998 21.3333V17.6875C21.6998 17.1125 22.1654 16.6458 22.7415 16.6458C23.3175 16.6458 23.7831 17.1125 23.7831 17.6875V21.3333ZM22.7415 16.125C22.1665 16.125 21.6998 15.6583 21.6998 15.0833C21.6998 14.5083 22.1665 14.0417 22.7415 14.0417C23.3165 14.0417 23.7831 14.5083 23.7831 15.0833C23.7831 15.6583 23.3165 16.125 22.7415 16.125Z" fill="white"/>
</g>
<defs>
<filter id="filter0_dd" x="0.772705" y="0.5" width="33" height="33" filterUnits="userSpaceOnUse" color-interpolation-filters="sRGB">
<feFlood flood-opacity="0" result="BackgroundImageFix"/>
<feColorMatrix in="SourceAlpha" type="matrix" values="0 0 0 0 0 0 0 0 0 0 0 0 0 0 0 0 0 0 127 0"/>
<feOffset dy="4"/>
<feGaussianBlur stdDeviation="2"/>
<feColorMatrix type="matrix" values="0 0 0 0 0 0 0 0 0 0 0 0 0 0 0 0 0 0 0.25 0"/>
<feBlend mode="normal" in2="BackgroundImageFix" result="effect1_dropShadow"/>
<feColorMatrix in="SourceAlpha" type="matrix" values="0 0 0 0 0 0 0 0 0 0 0 0 0 0 0 0 0 0 127 0"/>
<feOffset dy="4"/>
<feGaussianBlur stdDeviation="2"/>
<feColorMatrix type="matrix" values="0 0 0 0 0 0 0 0 0 0 0 0 0 0 0 0 0 0 0.25 0"/>
<feBlend mode="normal" in2="effect1_dropShadow" result="effect2_dropShadow"/>
<feBlend mode="normal" in="SourceGraphic" in2="effect2_dropShadow" result="shape"/>
</filter>
<clipPath id="clip0">
<rect width="25" height="25" fill="white" transform="translate(4.77271 0.5)"/>
</clipPath>
</defs>
</svg>
