<svg width="40" height="40" viewBox="0 0 40 40" fill="none" xmlns="http://www.w3.org/2000/svg">
<line x1="11.0142" y1="9.84912" x2="29.9646" y2="28.7996" stroke="#E74C3C" stroke-width="2" stroke-linecap="round" stroke-linejoin="round"/>
<path fill-rule="evenodd" clip-rule="evenodd" d="M15.5 13.7607V20C15.5 22.3197 17.3804 24.2 19.7 24.2C21.3871 24.2 22.8418 23.2054 23.5097 21.7705L15.5 13.7607ZM24.5451 22.8058C23.4879 24.6245 21.4364 25.7968 19.1404 25.5729C16.2311 25.289 14.1 22.6736 14.1 19.7507V17.9C14.1 17.5133 13.7868 17.2 13.4 17.2H12.7C12.3133 17.2 12 17.5133 12 17.9V19.657C12 23.5788 14.7987 27.0749 18.65 27.606V29.1H16.2C15.8133 29.1 15.5 29.4133 15.5 29.8V30.5C15.5 30.8868 15.8133 31.2 16.2 31.2H23.2C23.5868 31.2 23.9 30.8868 23.9 30.5V29.8C23.9 29.4133 23.5868 29.1 23.2 29.1H20.75V27.6226C22.954 27.3202 24.8644 26.0836 26.065 24.3258L24.5451 22.8058ZM26.8115 22.9509L25.1502 21.2896C25.2481 20.8754 25.3 20.4437 25.3 20V17.9C25.3 17.5133 25.6133 17.2 26 17.2H26.7C27.0868 17.2 27.4 17.5133 27.4 17.9V20C27.4 21.0452 27.1906 22.042 26.8115 22.9509ZM23.8998 20.0392L15.6709 11.8103C16.1839 10.0701 17.7936 8.80005 19.7 8.80005C22.0196 8.80005 23.9 10.6804 23.9 13V20C23.9 20.0131 23.8999 20.0262 23.8998 20.0392Z" fill="#E74C3C"/>
</svg>
