<svg width="22" height="22" viewBox="0 0 22 22" fill="none" xmlns="http://www.w3.org/2000/svg">
<g clip-path="url(#clip0)">
<path d="M18.1856 6.4C18.8483 6.4 19.3856 5.86274 19.3856 5.2C19.3856 4.53726 18.8483 4 18.1856 4C17.5229 4 16.9856 4.53726 16.9856 5.2C16.9856 5.86274 17.5229 6.4 18.1856 6.4Z" fill="white"/>
<path d="M14.9856 4.0001C15.6483 4.0001 16.1856 3.46284 16.1856 2.8001C16.1856 2.13736 15.6483 1.6001 14.9856 1.6001C14.3228 1.6001 13.7856 2.13736 13.7856 2.8001C13.7856 3.46284 14.3228 4.0001 14.9856 4.0001Z" fill="white"/>
<path d="M11.7856 3.20005C12.4483 3.20005 12.9856 2.66279 12.9856 2.00005C12.9856 1.33731 12.4483 0.800049 11.7856 0.800049C11.1228 0.800049 10.5856 1.33731 10.5856 2.00005C10.5856 2.66279 11.1228 3.20005 11.7856 3.20005Z" fill="white"/>
<path d="M8.58556 4.80002C9.2483 4.80002 9.78556 4.26277 9.78556 3.60002C9.78556 2.93728 9.2483 2.40002 8.58556 2.40002C7.92282 2.40002 7.38556 2.93728 7.38556 3.60002C7.38556 4.26277 7.92282 4.80002 8.58556 4.80002Z" fill="white"/>
<path d="M16.9856 5.2V10.4C16.9856 10.6208 16.8064 10.8 16.5856 10.8C16.3648 10.8 16.1856 10.6208 16.1856 10.4V2.8H13.7856V9.6C13.7856 9.8208 13.6064 10 13.3856 10C13.1648 10 12.9856 9.8208 12.9856 9.6V2H10.5856V9.6C10.5856 9.8208 10.4064 10 10.1856 10C9.96479 10 9.78559 9.8208 9.78559 9.6V3.6H7.38559V13.6L5.76559 11.3832C5.28559 10.6432 4.34879 10.3952 3.66239 10.8192C2.97839 11.2528 2.80879 12.1984 3.28239 12.936C3.28239 12.936 5.89519 16.8904 7.00879 18.5832C8.12239 20.276 9.92639 21.6 13.3 21.6C18.8856 21.6 19.3856 17.2864 19.3856 16C19.3856 14.7136 19.3856 5.2 19.3856 5.2H16.9856Z" fill="white"/>
</g>
<defs>
<clipPath id="clip0">
<rect width="20.8" height="20.8" fill="white" transform="translate(0.799988 0.800049)"/>
</clipPath>
</defs>
</svg>
