<svg width="26" height="26" viewBox="0 0 26 26" fill="none" xmlns="http://www.w3.org/2000/svg">
<g clip-path="url(#clip0)">
<path d="M13.0002 12.4015C11.6066 12.4015 10.4728 13.5343 10.4728 14.9267V17.9718H15.5277V14.9267C15.5277 13.5343 14.3939 12.4015 13.0002 12.4015ZM13.7327 15.9185H12.2677V14.4547H13.7327V15.9185Z" fill="white"/>
<path d="M13 0.5L2.50195 2.59805V16.959C2.50195 20.0402 4.33931 22.4995 7.81528 24.071C10.3355 25.2104 12.819 25.4811 12.9235 25.492L13 25.5L13.0765 25.492C13.181 25.4811 15.6646 25.2104 18.1848 24.071C21.6607 22.4995 23.498 20.0402 23.498 16.959V2.59805L13 0.5ZM16.9925 19.4354H9.00747V14.9267C9.00747 13.5468 9.71235 12.3283 10.7813 11.6118C10.005 10.9776 9.50933 10.0182 9.50933 8.94639C9.50933 7.04126 11.0752 5.49131 13 5.49131C14.9248 5.49131 16.4907 7.04126 16.4907 8.94639C16.4907 10.0182 15.995 10.9776 15.2187 11.6118C16.2876 12.3283 16.9925 13.5468 16.9925 14.9267V19.4354Z" fill="white"/>
<path d="M12.9999 10.9377C14.1186 10.9377 15.0255 10.0462 15.0255 8.94639C15.0255 7.84662 14.1186 6.95508 12.9999 6.95508C11.8812 6.95508 10.9742 7.84662 10.9742 8.94639C10.9742 10.0462 11.8812 10.9377 12.9999 10.9377Z" fill="white"/>
</g>
<defs>
<clipPath id="clip0">
<rect width="25" height="25" fill="white" transform="translate(0.5 0.5)"/>
</clipPath>
</defs>
</svg>
