<svg width="16" height="24" viewBox="0 0 16 24" fill="none" xmlns="http://www.w3.org/2000/svg">
<path d="M7.7 16.2C10.0196 16.2 11.9 14.3197 11.9 12V5.00005C11.9 2.68042 10.0196 0.800049 7.7 0.800049C5.38038 0.800049 3.5 2.68042 3.5 5.00005V12C3.5 14.3197 5.38038 16.2 7.7 16.2ZM14.7 9.20005H14C13.6133 9.20005 13.3 9.5133 13.3 9.90005V12C13.3 15.2725 10.4786 17.8984 7.14044 17.5729C4.23106 17.289 2.1 14.6736 2.1 11.7507V9.90005C2.1 9.5133 1.78675 9.20005 1.4 9.20005H0.7C0.31325 9.20005 0 9.5133 0 9.90005V11.657C0 15.5788 2.79869 19.0749 6.65 19.606V21.1H4.2C3.81325 21.1 3.5 21.4133 3.5 21.8V22.5C3.5 22.8868 3.81325 23.2 4.2 23.2H11.2C11.5868 23.2 11.9 22.8868 11.9 22.5V21.8C11.9 21.4133 11.5868 21.1 11.2 21.1H8.75V19.6226C12.4998 19.1081 15.4 15.8894 15.4 12V9.90005C15.4 9.5133 15.0868 9.20005 14.7 9.20005Z" fill="white" fill-opacity="0.8"/>
</svg>
