<svg width="26" height="26" viewBox="0 0 26 26" fill="none" xmlns="http://www.w3.org/2000/svg">
<g clip-path="url(#clip0)">
<path d="M12.9999 12.7677C15.3626 12.7677 17.2782 10.4412 17.2782 7.57132C17.2782 4.70142 16.6492 2.37488 12.9999 2.37488C9.35047 2.37488 8.72159 4.70142 8.72159 7.57132C8.72165 10.4412 10.6372 12.7677 12.9999 12.7677Z" fill="white"/>
<path d="M21.0715 20.4921C20.9923 15.4926 20.3394 14.0681 15.3429 13.1663C15.3429 13.1663 14.6395 14.0625 13.0002 14.0625C11.3609 14.0625 10.6575 13.1663 10.6575 13.1663C5.71558 14.0581 5.02281 15.4616 4.93176 20.3296C4.92435 20.7271 4.92094 20.748 4.91959 20.7018C4.91984 20.7883 4.92023 20.9482 4.92023 21.2271C4.92023 21.2271 6.1098 23.6251 13.0002 23.6251C19.8907 23.6251 21.0804 21.2271 21.0804 21.2271C21.0804 21.0479 21.0805 20.9233 21.0806 20.8386C21.0793 20.8671 21.0765 20.8118 21.0715 20.4921Z" fill="white"/>
<path d="M18.9369 11.84C20.856 11.84 22.4116 9.95049 22.4116 7.61964C22.4116 5.28872 21.9009 3.39917 18.9369 3.39917C18.4384 3.39917 18.0094 3.45281 17.6403 3.55295C18.3249 4.81497 18.4188 6.34783 18.4188 7.57141C18.4188 8.95681 18.0432 10.2795 17.3516 11.3747C17.827 11.6715 18.3656 11.84 18.9369 11.84Z" fill="white"/>
<path d="M25.4921 18.1133C25.4277 14.0529 24.8975 12.8959 20.8394 12.1635C20.8394 12.1635 20.2682 12.8914 18.9367 12.8914C18.8817 12.8914 18.8283 12.8897 18.7758 12.8873C19.6217 13.2687 20.3913 13.7998 20.9581 14.5769C21.9378 15.9204 22.1631 17.7251 22.2096 20.3765C24.9397 19.837 25.4993 18.7104 25.4993 18.7104C25.4993 18.5636 25.4993 18.4629 25.4995 18.394C25.4984 18.4182 25.4962 18.3748 25.4921 18.1133Z" fill="white"/>
<path d="M7.06277 11.84C7.63415 11.84 8.17269 11.6715 8.64825 11.3747C7.95664 10.2795 7.58109 8.95681 7.58109 7.57141C7.58109 6.34777 7.67491 4.8149 8.35937 3.55295C7.99039 3.45281 7.56145 3.39917 7.06277 3.39917C4.09885 3.39917 3.5882 5.28872 3.5882 7.61964C3.5882 9.95043 5.14386 11.84 7.06277 11.84Z" fill="white"/>
<path d="M7.22364 12.8876C7.17123 12.8899 7.11784 12.8916 7.06266 12.8916C5.73122 12.8916 5.15997 12.1637 5.15997 12.1637C1.10203 12.8961 0.571672 14.0531 0.507405 18.1136C0.50322 18.3751 0.501095 18.4185 0.5 18.3942C0.500129 18.463 0.500258 18.5638 0.500258 18.7106C0.500258 18.7106 1.05985 19.8372 3.78983 20.3767C3.83651 17.7254 4.06164 15.9206 5.04154 14.5771C5.60822 13.8001 6.37768 13.269 7.22364 12.8876Z" fill="white"/>
</g>
<defs>
<clipPath id="clip0">
<rect width="25" height="25" fill="white" transform="translate(0.5 0.5)"/>
</clipPath>
</defs>
</svg>
