<svg width="22" height="26" viewBox="0 0 22 26" fill="none" xmlns="http://www.w3.org/2000/svg">
<path d="M11 0.5L0.501953 2.59805V16.959C0.501953 20.0402 2.33931 22.4995 5.81528 24.071C8.3355 25.2104 10.819 25.4811 10.9235 25.492L11 25.5L11.0765 25.492C11.181 25.4811 13.6646 25.2104 16.1848 24.071C19.6607 22.4995 21.498 20.0402 21.498 16.959V2.59805L11 0.5ZM14.9925 19.4354H7.00747V14.9267C7.00747 13.5468 7.71235 12.3283 8.7813 11.6118C8.00498 10.9776 7.50933 10.0182 7.50933 8.94639C7.50933 7.04126 9.07524 5.49131 11 5.49131C12.9248 5.49131 14.4907 7.04126 14.4907 8.94639C14.4907 10.0182 13.995 10.9776 13.2187 11.6118C14.2876 12.3283 14.9925 13.5468 14.9925 14.9267V19.4354Z" fill="white"/>
</svg>
